<svg width="110" height="88" viewBox="0 0 110 88" fill="none" xmlns="http://www.w3.org/2000/svg">
<g clip-path="url(#clip0_585_249)">
<path d="M109.772 32.564C109.637 32.4676 109.474 32.4194 109.308 32.4273C109.143 32.4352 108.985 32.4986 108.86 32.6073C107.871 33.7024 106.954 34.6899 106.107 35.5699C105.263 36.4562 104.42 37.2559 103.591 37.9785C102.773 38.6845 101.917 39.3454 101.026 39.9583C100.232 40.5029 99.4079 41.0046 98.5589 41.4613C99.6496 39.5344 100.808 37.5208 101.952 35.5795L103.814 32.4917C104.421 31.4801 105.008 30.5263 105.574 29.6303C105.788 29.2924 105.863 28.8849 105.782 28.4935C105.696 28.124 105.514 27.7835 105.254 27.5059C104.972 27.199 104.645 26.9359 104.284 26.7256C103.94 26.5176 103.57 26.3556 103.184 26.2438C102.89 26.1502 102.579 26.1206 102.272 26.1571C102.02 26.2005 101.894 26.3354 101.894 26.557C101.834 27.0654 101.699 27.5622 101.492 28.031C101.249 28.6187 100.934 29.2931 100.522 30.0494C100.382 30.3288 100.226 30.6226 100.037 30.9358C99.8484 31.2489 99.6884 31.5524 99.4896 31.8607C98.7258 33.0733 97.8701 34.2263 96.93 35.3097C95.9605 36.4338 95.0135 37.4293 94.0892 38.2964C93.3135 39.0484 92.4786 39.7379 91.5927 40.3581C90.8461 40.8399 90.3323 41.0711 90.0462 40.9892C89.7602 40.9073 89.7651 40.6424 89.9638 40.1269C90.2327 39.459 90.557 38.8145 90.9334 38.2C91.3858 37.4421 91.9078 36.6152 92.4992 35.7192C93.0906 34.8232 93.6691 33.9609 94.2347 33.1324L95.7181 30.9454C96.0175 30.5314 96.2726 30.0874 96.4792 29.6207C96.58 29.3289 96.6075 29.0171 96.5594 28.7123C96.5112 28.4075 96.3888 28.1191 96.2029 27.872C95.8358 27.3685 95.3668 26.9468 94.8261 26.634C94.385 26.3571 93.8889 26.178 93.3718 26.109C92.9161 26.0656 92.7222 26.2101 92.7755 26.5473C92.803 26.9816 92.7001 27.4141 92.4798 27.7901C92.2277 28.3345 91.8884 28.9752 91.4666 29.717C91.0449 30.4589 90.5553 31.2392 90.0123 32.0967C89.862 32.3279 89.7166 32.5784 89.5712 32.8C88.5628 33.9272 87.666 34.9388 86.8904 35.8204C86.1147 36.7019 85.2955 37.569 84.5634 38.3012C83.8513 39.0065 83.1021 39.6738 82.3189 40.3003C81.5159 40.925 80.6722 41.4963 79.7933 42.0104L79.8417 41.8563C81.4577 39.0334 83.1091 36.2282 84.7961 33.4407C86.5316 30.5953 88.2025 27.9315 89.8087 25.449C91.4149 22.9666 92.9113 20.7442 94.2977 18.782C95.6809 16.8166 96.8234 15.2591 97.7251 14.1094C98.0353 13.7192 98.1129 13.4302 97.9577 13.2471C97.8405 13.1425 97.7032 13.0626 97.5541 13.0121C97.405 12.9616 97.2471 12.9416 97.09 12.9533C96.5787 12.9487 96.0684 12.9988 95.5678 13.1026C94.9635 13.2187 94.3688 13.3797 93.7887 13.5843C93.2275 13.7808 92.6882 14.0343 92.1792 14.3406C91.7849 14.5571 91.4515 14.8685 91.2097 15.2462C90.1917 16.9836 88.9555 18.9956 87.5012 21.2822C86.0469 23.5687 84.4972 26.0078 82.8522 28.5994C81.5595 30.6612 80.236 32.7856 78.8819 34.9725C78.625 35.2616 78.3971 35.5458 78.1402 35.8155C77.3209 36.7404 76.5453 37.5642 75.8084 38.2964C75.0985 39.004 74.3492 39.6714 73.5639 40.2955C72.7634 40.9213 71.9212 41.4927 71.0431 42.0056L71.0916 41.8515C72.7075 39.0286 74.3573 36.2234 76.0411 33.4359C77.7766 30.5905 79.4491 27.9266 81.0585 25.4442C82.668 22.9617 84.1643 20.7394 85.5475 18.7772C86.9308 16.8118 88.0732 15.2543 88.9749 14.1046C89.2851 13.7144 89.3627 13.4254 89.2076 13.2423C89.0904 13.1377 88.953 13.0578 88.8039 13.0073C88.6548 12.9568 88.4969 12.9368 88.3398 12.9485C87.8285 12.9439 87.3182 12.994 86.8176 13.0978C86.2132 13.2132 85.6184 13.3743 85.0385 13.5795C84.4773 13.776 83.938 14.0294 83.4291 14.3358C83.0352 14.5529 82.7019 14.8642 82.4595 15.2414C81.448 16.9788 80.2134 18.9908 78.7559 21.2773C77.2983 23.5639 75.7519 26.0046 74.1166 28.5994C73.0598 30.2694 71.9884 31.9859 70.9025 33.749L69.3319 35.5602C68.4883 36.5429 67.6707 37.4405 66.8789 38.253C66.2045 38.9586 65.4907 39.626 64.7411 40.2522C64.106 40.7724 63.6164 40.9892 63.2867 40.9025C63.0346 40.8495 63.0201 40.5605 63.2479 40.0402C63.5512 39.3796 63.9113 38.7462 64.3241 38.1471C64.8186 37.4052 65.4052 36.5847 66.0839 35.6855C66.7577 34.7895 67.4025 33.9369 68.023 33.1228C68.6435 32.3087 69.1573 31.5861 69.613 30.955C69.933 30.5475 70.2016 30.1026 70.4129 29.6303C70.5144 29.3389 70.5427 29.0273 70.4954 28.7225C70.4481 28.4178 70.3266 28.1291 70.1414 27.8817C69.7777 27.3822 69.316 26.9611 68.7841 26.6437C68.3446 26.3633 67.8478 26.1839 67.3297 26.1186C66.845 26.0752 66.6705 26.2198 66.7577 26.557C66.7752 27.0294 66.6575 27.4971 66.4184 27.9058C66.1372 28.4935 65.7558 29.1807 65.2743 29.9675L65.1046 30.218L64.9786 30.4685L63.0686 33.4166C62.3228 34.4131 61.5132 35.3609 60.6447 36.2539C59.7527 37.166 58.8979 37.9688 58.0803 38.6625C57.3926 39.2554 56.6564 39.7904 55.8794 40.2618C55.2298 40.6375 54.7789 40.8013 54.5269 40.7435C54.2748 40.6857 54.2409 40.4063 54.4396 39.9053C54.7141 39.2526 55.0467 38.6254 55.4334 38.0314C55.9182 37.2896 56.4466 36.4755 57.0671 35.5891C57.6876 34.7028 58.2839 33.8646 58.8656 33.0698C59.4473 32.2749 59.9418 31.562 60.3684 30.9454C60.6704 30.5399 60.9257 30.102 61.1295 29.6399C61.2316 29.3484 61.2598 29.0363 61.2116 28.7313C61.1634 28.4263 61.0403 28.1378 60.8532 27.8913C60.4912 27.392 60.0311 26.9709 59.5006 26.6533C59.0523 26.3695 58.5452 26.19 58.0172 26.1282C57.5325 26.0849 57.3628 26.2294 57.4452 26.5666C57.4727 27.0008 57.3698 27.4334 57.1495 27.8094C56.8375 28.4691 56.4912 29.1123 56.1121 29.7363C55.6758 30.4685 55.1862 31.2585 54.6578 32.116C54.1294 32.9734 53.5913 33.8164 53.0677 34.6594C52.9804 34.8039 52.9029 34.9388 52.8156 35.0785C52.6459 35.2616 52.4811 35.4446 52.3066 35.6277C51.458 36.5426 50.5615 37.4125 49.621 38.2338C48.8125 38.9516 47.9413 39.5964 47.0177 40.1606C46.3449 40.6049 45.5568 40.8459 44.749 40.8543C44.5429 40.8683 44.3376 40.8165 44.1632 40.7064C43.9888 40.5964 43.8544 40.4338 43.7794 40.2425C43.6302 39.7748 43.6085 39.2762 43.7164 38.7974C43.8326 38.1382 44.0161 37.4926 44.2642 36.8705C44.5308 36.1865 44.8072 35.5362 45.0883 34.9147H45.132L47.8418 30.5793C49.4105 29.6377 50.8975 28.5678 52.2872 27.3807C53.7796 26.1223 55.2067 24.7895 56.5629 23.3873C57.8793 22.0283 59.1159 20.5953 60.2666 19.0952C61.2771 17.7973 62.177 16.418 62.9571 14.9717C63.2275 14.5162 63.332 13.9821 63.2528 13.4591C63.174 12.9805 62.9732 12.53 62.6694 12.1505C62.3655 11.771 61.9689 11.4752 61.5173 11.2914C61.1033 11.1123 60.6412 11.075 60.2036 11.1854C58.4867 11.7417 56.897 12.6289 55.5255 13.7963C53.7422 15.2411 52.104 16.8544 50.6341 18.6134C48.9562 20.6058 47.4144 22.7076 46.0191 24.9047C44.582 27.1642 43.2868 29.5098 42.1409 31.9281L41.1714 34.0332C41.0308 34.3704 40.8708 34.828 40.6866 35.4013C40.4928 36.0128 40.3437 36.6374 40.2406 37.2703C40.1286 37.9517 40.08 38.6419 40.0952 39.3321C40.0957 39.9907 40.2173 40.6437 40.4539 41.2589C40.6715 41.8301 41.044 42.3303 41.5301 42.7041C42.1196 43.1078 42.827 43.306 43.5419 43.2677C44.6696 43.2445 45.7688 42.911 46.7172 42.3043C47.9405 41.5989 49.0903 40.7743 50.1494 39.8427C50.2948 39.7175 50.4354 39.5826 50.5808 39.4525C50.5059 39.7683 50.4668 40.0915 50.4645 40.4159C50.4481 40.8813 50.5273 41.3452 50.6972 41.7792C50.8745 42.2256 51.1753 42.6131 51.5649 42.8968C52.0695 43.2309 52.6818 43.365 53.281 43.2725C54.2942 43.2195 55.4382 42.6848 56.7083 41.678C58.0476 40.5645 59.2809 39.331 60.3926 37.9929C60.2763 38.2145 60.1793 38.4265 60.0921 38.624C60.0048 38.8215 59.9369 38.9997 59.8836 39.1683C59.7526 39.5494 59.6743 39.9464 59.6509 40.3485C59.6064 40.8068 59.6492 41.2692 59.777 41.7118C59.9076 42.1539 60.1736 42.5445 60.5381 42.8293C61.0261 43.1639 61.6252 43.2985 62.2105 43.2051C63.2058 43.1353 64.1568 42.7693 64.9398 42.1549C65.5297 41.7335 66.0931 41.2766 66.6268 40.7869C66.0257 41.8129 65.4294 42.839 64.8525 43.8602L64.2223 44.9393L63.3982 45.3102C62.4901 45.6313 61.5205 45.9814 60.4896 46.3603C59.4586 46.7393 58.2952 47.1182 56.9992 47.4972C56.6308 47.6658 56.432 47.8585 56.4078 48.0656C56.3933 48.1695 56.4072 48.2753 56.4482 48.372C56.4891 48.4686 56.5556 48.5525 56.6405 48.6148C56.8965 48.7981 57.195 48.9141 57.5082 48.952C57.9426 49.0204 58.3856 49.0123 58.8171 48.9279L62.7438 47.4827L59.7624 52.6226C57.7167 56.0236 55.797 59.3169 54.0033 62.5027C53.1113 64.0795 52.2759 65.6001 51.497 67.0645C50.8038 68.028 50.0136 68.9191 49.427 69.5983C48.5803 70.581 47.761 71.4786 46.9692 72.2911C46.2948 72.9967 45.5811 73.6641 44.8314 74.2903C44.1963 74.8105 43.7116 75.0273 43.3771 74.9406C43.125 74.8876 43.1104 74.5986 43.3334 74.0783C43.6395 73.4181 44.0011 72.7848 44.4145 72.1852C44.909 71.4433 45.4955 70.6228 46.1742 69.7236L48.1133 67.1609C48.7209 66.3484 49.2493 65.6258 49.6985 64.9931C50.0194 64.5853 50.2896 64.1405 50.5032 63.6684C50.6047 63.377 50.633 63.0654 50.5857 62.7606C50.5384 62.4559 50.4169 62.1672 50.2318 61.9198C49.8681 61.4203 49.4063 60.9992 48.8744 60.6818C48.426 60.398 47.9189 60.2185 47.391 60.1567C46.9062 60.1133 46.7366 60.2579 46.8238 60.5951C46.8413 61.0675 46.7236 61.5352 46.4845 61.9439C46.1985 62.5316 45.8203 63.2204 45.3404 64.0056L45.1707 64.2561L45.0447 64.5066L43.1832 67.4547C42.4375 68.4513 41.6279 69.3991 40.7593 70.292C39.8738 71.2009 39.0206 72.0037 38.1997 72.7006C37.512 73.2935 36.7759 73.8285 35.9988 74.2999C35.3492 74.6756 34.8984 74.8394 34.6414 74.7816C34.3845 74.7238 34.3603 74.4444 34.559 73.9386C34.827 73.2888 35.1514 72.6634 35.5286 72.0696C35.994 71.3277 36.5369 70.5136 37.1574 69.6272C37.7779 68.7409 38.3791 67.8995 38.9608 67.103C39.536 66.3098 40.037 65.6017 40.4636 64.9787C40.7642 64.574 41.0194 64.1379 41.2247 63.678C41.3255 63.3863 41.353 63.0744 41.3048 62.7697C41.2567 62.4649 41.1343 62.1765 40.9484 61.9294C40.5852 61.4312 40.1253 61.0103 39.5958 60.6914C39.1475 60.4076 38.6404 60.2281 38.1124 60.1663C37.6277 60.123 37.458 60.2675 37.5404 60.6047C37.565 61.0387 37.4623 61.4704 37.2447 61.8475C36.9878 62.3919 36.6436 63.0325 36.2073 63.7744C35.771 64.5162 35.2814 65.2966 34.7529 66.1541C34.2245 67.0115 33.6864 67.8545 33.1629 68.6975C32.6393 69.5405 32.1594 70.3498 31.7086 71.135C31.3329 71.8117 31.0088 72.5153 30.739 73.2401C30.6154 73.6215 30.5516 74.0196 30.55 74.4203C30.5336 74.8857 30.6128 75.3496 30.7826 75.7836C30.9583 76.2309 31.2595 76.6188 31.6504 76.9012C32.1537 77.2341 32.764 77.3681 33.3616 77.2769C34.3797 77.2239 35.5237 76.6892 36.7938 75.6824C38.1447 74.5934 39.391 73.3823 40.5169 72.0647C40.4054 72.2863 40.3085 72.4983 40.2212 72.6958C40.1339 72.8933 40.0661 73.0715 40.0127 73.2401C39.8822 73.6216 39.8023 74.0183 39.7752 74.4203C39.7323 74.8789 39.7767 75.3414 39.9061 75.7836C40.0349 76.2265 40.3013 76.6177 40.6672 76.9012C41.1546 77.2371 41.7542 77.3718 42.3397 77.2769C43.3349 77.2071 44.2859 76.8411 45.0689 76.2268C46.0824 75.4946 47.0252 74.6705 47.8855 73.7652C48.0729 73.5693 48.262 73.367 48.4527 73.1582C47.4831 75.1911 46.6832 77.0746 46.0288 78.7943C45.3147 80.5638 44.8261 82.4151 44.5745 84.3051C44.4226 85.7631 44.665 86.8085 45.3016 87.4411C45.9318 88.0674 47.0274 88.1878 48.5884 87.7928C49.8585 87.4716 51.4033 86.6029 53.2228 85.1867L53.2713 85.1433C53.2117 85.9797 53.487 86.8055 54.0372 87.4411C54.6675 88.0674 55.7679 88.1878 57.3289 87.7928C58.5925 87.4716 60.1357 86.6029 61.9584 85.1867C63.9846 83.5798 65.8884 81.8264 67.6545 79.9408C69.6324 77.863 71.6232 75.5443 73.627 72.9848C75.6037 70.458 77.442 67.8272 79.134 65.1039C79.1567 65.0713 79.1778 65.0375 79.197 65.0028C79.4968 65.0501 79.8036 65.0286 80.0938 64.9401C81.8248 64.2886 83.4108 63.3067 84.7622 62.0498C86.1769 60.8022 87.4395 59.394 88.524 57.8541C90.1698 55.7089 91.668 53.4558 93.0082 51.1101C93.716 49.8672 95.5339 46.895 97.0803 44.1444C98.0692 43.6563 99.0388 43.136 99.9889 42.5837C101.183 41.882 102.328 41.1015 103.416 40.2473C104.578 39.3366 105.675 38.3467 106.698 37.2848C107.849 36.0826 108.922 34.81 109.912 33.4744C110.087 33.0666 110.04 32.7631 109.772 32.564ZM52.8641 22.9296C54.1051 21.2051 55.2912 19.6764 56.4223 18.3437C57.3698 17.204 58.3882 16.1245 59.4716 15.1114C60.0854 14.47 60.838 13.9758 61.6724 13.6662C61.9536 13.6132 61.9827 13.83 61.7548 14.3214C61.3997 15.0249 60.9896 15.6998 60.5284 16.3397C59.9369 17.1908 59.1952 18.1542 58.3033 19.23C57.4113 20.3059 56.4595 21.401 55.4479 22.5154C54.4299 23.6233 53.378 24.6959 52.2921 25.7332C51.3107 26.6794 50.2713 27.5642 49.1798 28.3827C50.3982 26.459 51.6263 24.6349 52.8641 22.9104V22.9296ZM73.8548 51.5051C73.8548 51.6303 73.816 51.7556 73.7918 51.8856C73.3553 53.8529 72.6916 55.7635 71.8139 57.5795C70.7146 59.9551 69.4913 62.2721 68.149 64.5211C66.7044 66.9393 65.1192 69.3479 63.3934 71.7468C62.217 73.3911 61.0374 74.9245 59.8545 76.3472C60.1987 75.615 60.5671 74.8491 60.9744 74.0398C62.684 70.6035 64.8525 66.6133 67.48 62.0691C68.7501 59.8243 71.6394 55.0938 73.8548 51.4858V51.5051ZM75.7551 40.1606C75.0183 41.4099 74.2992 42.6495 73.5979 43.8795L73.3555 44.2938C72.2864 44.1818 71.2115 44.1335 70.1366 44.1493C72.0827 42.9248 73.9585 41.5931 75.7551 40.1606ZM49.2816 85.0663C48.3121 85.1626 48.1085 84.2088 48.7241 82.2097C49.6739 79.408 50.8392 76.6831 52.2096 74.059C53.9257 70.6228 56.0959 66.6326 58.7202 62.0884C60.9695 58.1865 68.0327 46.7794 68.0327 46.7794C69.2612 46.2858 70.6002 46.1278 71.9109 46.3218L72.1726 46.37L71.5133 47.502L68.532 52.6419C66.4862 56.0428 64.5665 59.3362 62.7729 62.5219C60.9792 65.7077 59.4069 68.6622 58.056 71.3855C56.7083 74.1056 55.616 76.5736 54.7789 78.7895C54.2644 80.102 53.8512 81.4515 53.5428 82.8263L53.3004 83.0238C51.72 84.2425 50.3821 84.9266 49.2816 85.047V85.0663ZM72.1096 71.7661C70.5013 74.0167 68.7781 76.1841 66.9468 78.2596C65.4453 79.9849 63.7975 81.5788 62.0215 83.0238C60.454 84.2602 59.1193 84.941 58.0172 85.0663C57.0477 85.1626 56.8441 84.2088 57.4597 82.2097C57.5761 81.8243 57.7215 81.41 57.8767 80.9765C58.216 80.6393 58.5505 80.2924 58.8898 79.936C60.8677 77.8582 62.8585 75.5395 64.8622 72.98C66.839 70.4532 68.6773 67.8224 70.3693 65.0991C71.9635 62.5446 73.3916 59.8913 74.645 57.1556C75.7198 54.876 76.4953 52.4685 76.9525 49.9925C77.1812 48.9197 77.1379 47.8073 76.8265 46.7553C78.0338 46.2846 79.3438 46.1352 80.6271 46.3218C81.1175 46.3627 81.5798 46.5665 81.9395 46.9003C82.2992 47.2341 82.5353 47.6785 82.6098 48.1619C82.8289 49.3963 82.8026 50.6613 82.5322 51.8856C82.4353 52.3673 82.2996 52.9117 82.1347 53.4705C81.2266 54.5688 80.3847 55.6815 79.6091 56.8088C78.639 58.1926 77.7861 59.654 77.0592 61.1779C76.8035 61.6597 76.723 62.2144 76.8313 62.7483C76.9114 63.128 77.0663 63.4881 77.287 63.8081L76.8604 64.5403C75.4158 66.9457 73.8322 69.3479 72.1096 71.7468V71.7661ZM87.2976 52.4974C86.1115 54.3343 84.9723 55.9642 83.8799 57.3868C83.3628 58.0676 82.8667 58.6859 82.3917 59.2414C82.7407 58.5429 83.0703 57.8541 83.3612 57.1652C84.1235 55.5087 84.7477 53.7929 85.2276 52.035C85.9402 51.2064 86.6819 50.3875 87.4188 49.5975C88.4804 48.4751 90.754 46.6156 91.7284 45.8208C90.5989 47.8103 88.5095 50.638 87.2976 52.4685V52.4974ZM92.8288 43.4411C90.9333 44.8177 89.1143 46.2955 87.38 47.8681C86.8273 48.3787 86.2876 48.9022 85.7608 49.4385C85.9163 48.4857 85.8331 47.5096 85.5185 46.5964C85.1985 45.8419 84.6516 45.2042 83.9526 44.7707C82.9831 44.0963 79.8175 44.1155 78.8722 44.1155C81.2125 42.6545 83.4419 41.0252 85.5427 39.2406C85.7657 39.0382 85.9887 38.8311 86.2117 38.6191C86.1341 38.807 86.0614 38.9852 85.9984 39.1538C85.8442 39.5284 85.7652 39.9293 85.7657 40.3341C85.7493 40.7995 85.8285 41.2633 85.9984 41.6973C86.1781 42.1478 86.4865 42.5363 86.8855 42.8149C87.401 43.1447 88.0191 43.2782 88.6259 43.1906C89.5954 43.1392 90.7088 42.6286 91.9659 41.6588C93.2068 40.6785 94.3526 39.5851 95.3884 38.3927L92.8288 43.4411Z" fill="white"/>
<path d="M37.8217 57.9022C38.8234 56.5165 39.6749 55.0293 40.3619 53.4656C40.9495 52.1631 41.3415 50.7819 41.5253 49.3662C41.712 48.0912 41.6177 46.7911 41.249 45.5558C40.9365 44.5716 40.4008 43.6718 39.6832 42.9257C38.9746 42.2163 38.133 41.6517 37.206 41.2637C36.2196 40.8522 35.1905 40.5501 34.1374 40.3629C33.0472 40.1642 31.9438 40.045 30.8361 40.0065C29.7211 39.9615 28.6691 39.939 27.6802 39.939C26.3686 39.9689 25.0611 40.0945 23.7681 40.3148C24.0994 39.5456 24.4783 38.7975 24.9024 38.0748C25.7664 36.6098 26.7386 35.2106 27.8111 33.8887C28.9551 32.4724 30.1752 31.0273 31.4711 29.5532C32.7671 28.0792 34.0937 26.634 35.4511 25.2178C36.8052 23.7726 38.098 22.3355 39.3293 20.9064C40.5121 20.4873 41.6368 20.1212 42.6936 19.8129C43.5559 19.5377 44.4597 19.4138 45.3647 19.4468C45.4762 19.4468 45.515 19.3649 45.4908 19.1963C45.4447 18.9915 45.3573 18.7981 45.2338 18.6279C45.0736 18.3985 44.8733 18.1995 44.6424 18.0402C44.3823 17.8542 44.075 17.7441 43.7553 17.7222C43.4589 17.6882 43.1596 17.6882 42.8633 17.7222C42.4639 17.7903 42.0689 17.882 41.6805 17.9968C42.3268 17.1554 42.9199 16.3269 43.4596 15.5112C43.9835 14.7338 44.4579 13.9245 44.88 13.0881C45.1049 12.6241 45.1713 12.0998 45.069 11.5948C44.9679 11.0375 44.7832 10.4984 44.5212 9.99551C44.2463 9.46777 43.9112 8.97317 43.5226 8.52146C43.1787 8.10961 42.7919 7.73501 42.3688 7.40388C44.3435 7.60299 46.3327 7.87596 48.3364 8.2228C50.3401 8.56963 52.3148 8.90683 54.2603 9.2344C56.1994 9.55554 58.1127 9.80764 60.0001 9.99069C61.8076 10.1723 63.6279 10.1932 65.4392 10.0533C66.8301 9.97289 68.2108 9.76813 69.5646 9.44154C70.8346 9.15222 72.0504 8.66444 73.1665 7.99639C74.205 7.36807 75.0987 6.52932 75.7891 5.53482C76.508 4.46272 76.9386 3.22555 77.0398 1.94121C77.0641 1.69478 77.0493 1.4461 76.9962 1.20418C76.9502 0.945747 76.8788 0.69243 76.7829 0.447889C76.7263 0.2698 76.6055 0.118803 76.4436 0.0239778C76.303 -0.0434626 76.1624 0.0239785 76.0218 0.216665C75.8126 0.996647 75.4205 1.71635 74.8778 2.31695C74.34 2.90774 73.7196 3.41875 73.0356 3.83436C72.318 4.26602 71.5516 4.61203 70.7523 4.86523C69.942 5.12629 69.1142 5.33072 68.2751 5.47701C66.3579 5.83204 64.4066 5.97261 62.4579 5.8961C60.2279 5.84472 57.8703 5.71305 55.385 5.5011L47.7692 4.84596C45.1838 4.62437 42.6856 4.51197 40.2746 4.50876L36.823 4.73998C35.4173 4.84171 34.0227 5.06087 32.654 5.39512C30.6258 5.90223 28.6479 6.59067 26.7446 7.45205C24.7602 8.33056 22.8912 9.44679 21.1794 10.7759C19.4852 12.0922 18.0125 13.6678 16.8164 15.4437C15.616 17.2315 14.8418 19.2678 14.5525 21.3977C14.4322 22.1505 14.4903 22.9208 14.7222 23.6474C14.9338 24.2848 15.2626 24.8777 15.6917 25.396C16.1089 25.8919 16.5841 26.3367 17.1073 26.7207C17.6308 27.0965 18.1301 27.4288 18.6101 27.6841C18.7537 27.7889 18.9195 27.8597 19.0948 27.8913C19.1336 27.8945 19.1722 27.8835 19.2035 27.8605C19.2347 27.8374 19.2564 27.8038 19.2645 27.766C19.2941 27.6556 19.2941 27.5393 19.2645 27.4288C19.2372 27.2697 19.2242 27.1085 19.2257 26.9471C19.1363 24.8784 19.3205 22.807 19.7735 20.786C20.201 18.8393 20.9373 16.9726 21.955 15.2559C22.969 13.5561 24.2827 12.0516 25.8332 10.8144C27.4876 9.49605 29.3868 8.51397 31.4226 7.92413C33.0567 7.50361 34.7298 7.25019 36.4158 7.16783C38.1512 7.08255 39.8904 7.10991 41.6223 7.24973C41.569 7.78443 41.4817 8.35286 41.3702 8.955C41.2587 9.55715 41.1424 10.0967 41.0309 10.5736C40.4999 12.0581 39.7358 13.4498 38.767 14.6971C37.6229 16.2675 36.2898 17.9503 34.7676 19.7455C33.798 19.996 32.7849 20.2272 31.7814 20.3572C30.8294 20.5068 29.8649 20.5633 28.9018 20.5258C28.0232 20.4906 27.1572 20.3048 26.3422 19.9767C25.5425 19.6482 24.8425 19.1186 24.311 18.44C24.1656 18.2714 24.0638 18.2521 23.9911 18.3774C23.9053 18.5623 23.8559 18.7617 23.8456 18.9651C23.8165 19.2663 23.8165 19.5695 23.8456 19.8707C23.8651 20.1689 23.9073 20.4652 23.9717 20.7571C24.0813 21.5435 24.4181 22.2814 24.9412 22.8814C25.4013 23.3677 25.989 23.7164 26.6379 23.8882C27.3553 24.0757 28.0995 24.1408 28.8388 24.0809C29.6702 24.0372 30.496 23.9195 31.3063 23.7293C29.9037 25.3703 28.5108 27.0114 27.1275 28.6524C25.7443 30.2934 24.5162 31.8992 23.4433 33.4696C22.46 34.8823 21.6097 36.3819 20.9031 37.9495C20.4389 38.956 20.1645 40.0385 20.0935 41.1433C19.0124 41.4564 17.9314 41.8225 16.8455 42.2561C14.9643 43.0184 13.1526 43.9403 11.4306 45.0115C9.68839 46.0721 8.06351 47.3121 6.58284 48.7111C5.11353 50.0992 3.81202 51.6528 2.70465 53.3404C1.59218 55.0276 0.75606 56.8796 0.227456 58.8271C-0.0277945 59.691 -0.0495302 60.6065 0.164436 61.4814C0.339378 62.2653 0.63884 63.0166 1.05157 63.7069C1.34792 64.227 1.73536 64.6903 2.19564 65.075C2.57376 65.3688 2.80645 65.3929 2.89371 65.1376C3.17563 63.3254 3.72446 61.5643 4.52255 59.911C5.39577 58.0879 6.43766 56.3495 7.6348 54.7181C8.88923 53.0064 10.2924 51.4074 11.8281 49.9395C13.3463 48.4707 14.9984 47.1451 16.7631 45.9797C17.9696 45.1851 19.2353 44.483 20.5492 43.8795C20.7175 44.314 20.9442 44.724 21.223 45.0982C21.4508 45.4154 21.7495 45.676 22.0956 45.8593C22.2219 45.928 22.3636 45.9641 22.5077 45.9641C22.6517 45.9641 22.7934 45.928 22.9197 45.8593C22.7256 44.8926 22.7256 43.8972 22.9197 42.9305C24.3869 42.4275 25.9172 42.1292 27.4669 42.0441C28.4559 42.0184 29.4456 42.0602 30.4289 42.1694C31.4349 42.2752 32.4041 42.6045 33.2648 43.1328C34.1535 43.6996 34.8588 44.5091 35.296 45.4643C35.8066 46.5048 35.9908 47.9082 35.8486 49.6745C35.7107 50.7679 35.4186 51.8365 34.9809 52.849C34.4283 54.1799 33.7617 55.4612 32.9885 56.6787C32.1157 58.0708 31.1437 59.3989 30.0798 60.6528C28.9771 61.9503 27.7657 63.1524 26.4586 64.2464C25.2047 65.3114 23.8261 66.222 22.3525 66.9585C20.9782 67.6546 19.4856 68.0908 17.9508 68.2447C18.8234 66.867 19.7331 65.4507 20.6801 63.9959C21.627 62.5412 22.5658 61.096 23.4966 59.6605C24.4274 58.2507 25.3307 56.8842 26.2065 55.5611C27.0823 54.238 27.8903 53.0176 28.6304 51.9C28.756 51.714 28.8416 51.5041 28.8816 51.2836C28.9217 51.063 28.9154 50.8367 28.863 50.6187C28.7506 50.1433 28.5356 49.6979 28.2328 49.3132C27.9213 48.8912 27.5582 48.5093 27.1518 48.1764C26.7912 47.8686 26.3959 47.6035 25.9738 47.3864C25.6891 47.2278 25.3693 47.1418 25.043 47.1359C24.7861 47.1359 24.6601 47.3141 24.6601 47.6176C24.6792 47.9061 24.6294 48.1949 24.5146 48.4606C24.3886 48.7978 24.2238 49.2024 24.0298 49.6793C23.7487 50.3007 23.2106 51.2786 22.4204 52.6274C21.6302 53.9762 20.7237 55.5177 19.6911 57.1893C18.6586 58.8609 17.5824 60.6673 16.4528 62.5315C15.3233 64.3958 14.2665 66.1733 13.2776 67.8545C12.2889 67.6149 11.3831 67.1158 10.6549 66.4094C10.398 66.1589 10.1702 66.1203 9.93263 66.3034C9.69509 66.4864 9.70963 66.7321 9.93263 67.0404C10.2611 67.4503 10.654 67.8049 11.0961 68.0905C11.5819 68.4102 12.1003 68.6782 12.6425 68.8902C11.673 70.5762 10.8892 72.0213 10.2914 73.2256C9.69347 74.4299 9.42685 75.2408 9.49148 75.6583C9.50301 76.3116 9.64815 76.9557 9.91808 77.5515C10.1401 78.0376 10.4396 78.485 10.8052 78.8762C11.0918 79.1893 11.4466 79.4332 11.8426 79.5891C11.9773 79.6561 12.1259 79.691 12.2765 79.691C12.4271 79.691 12.5757 79.6561 12.7104 79.5891C12.5992 79.1094 12.6278 78.6081 12.7928 78.144C13.0208 77.3784 13.311 76.6325 13.6605 75.9136C14.0726 75.0465 14.5719 74.0831 15.1633 73.0233C15.7548 71.9635 16.4092 70.8556 17.1024 69.6754C19.2815 69.6296 21.4415 69.261 23.5111 68.5819C25.5163 67.9296 27.4352 67.04 29.2266 65.9324C30.9695 64.8636 32.5944 63.6155 34.0744 62.2088C35.456 60.8927 36.7106 59.4509 37.8217 57.9022Z" fill="white"/>
</g>
<defs>
<clipPath id="clip0_585_249">
<rect width="110" height="88" fill="white"/>
</clipPath>
</defs>
</svg>
